<?xml version="1.0" standalone="no"?>
<!DOCTYPE svg PUBLIC "-//W3C//DTD SVG 20010904//EN"
 "http://www.w3.org/TR/2001/REC-SVG-20010904/DTD/svg10.dtd">
<svg version="1.0" xmlns="http://www.w3.org/2000/svg"
 width="16.000000pt" height="16.000000pt" viewBox="0 0 16.000000 16.000000"
 preserveAspectRatio="xMidYMid meet">
<metadata>
Created by potrace 1.11, written by Peter Selinger 2001-2013
</metadata>
<g transform="translate(0.000000,16.000000) scale(0.004000,-0.004000)"
fill="#000000" stroke="none">
<path d="M2710 3970 c0 -5 5 -10 10 -10 6 0 10 5 10 10 0 6 -4 10 -10 10 -5 0
-10 -4 -10 -10z"/>
<path d="M3221 3934 c0 -11 3 -14 6 -6 3 7 2 16 -1 19 -3 4 -6 -2 -5 -13z"/>
<path d="M2795 3889 c-4 -6 -5 -12 -2 -15 2 -3 7 2 10 11 7 17 1 20 -8 4z"/>
<path d="M2190 3879 c0 -5 5 -7 10 -4 6 3 10 8 10 11 0 2 -4 4 -10 4 -5 0 -10
-5 -10 -11z"/>
<path d="M1590 3871 c0 -5 5 -13 10 -16 6 -3 10 -2 10 4 0 5 -4 13 -10 16 -5
3 -10 2 -10 -4z"/>
<path d="M2170 3810 c0 -5 5 -10 11 -10 5 0 7 5 4 10 -3 6 -8 10 -11 10 -2 0
-4 -4 -4 -10z"/>
<path d="M1505 3790 c-3 -5 -1 -10 4 -10 6 0 11 5 11 10 0 6 -2 10 -4 10 -3 0
-8 -4 -11 -10z"/>
<path d="M3020 3740 c0 -5 5 -10 10 -10 6 0 10 5 10 10 0 6 -4 10 -10 10 -5 0
-10 -4 -10 -10z"/>
<path d="M2300 3728 c0 -9 5 -20 10 -23 13 -8 13 5 0 25 -8 13 -10 13 -10 -2z"/>
<path d="M2120 3720 c8 -5 20 -10 25 -10 6 0 3 5 -5 10 -8 5 -19 10 -25 10 -5
0 -3 -5 5 -10z"/>
<path d="M2755 3711 c-3 -5 -1 -12 5 -16 5 -3 10 1 10 9 0 18 -6 21 -15 7z"/>
<path d="M2805 3700 c-3 -5 -1 -10 4 -10 6 0 11 5 11 10 0 6 -2 10 -4 10 -3 0
-8 -4 -11 -10z"/>
<path d="M2850 3700 c0 -5 5 -10 11 -10 5 0 7 5 4 10 -3 6 -8 10 -11 10 -2 0
-4 -4 -4 -10z"/>
<path d="M3115 3700 c3 -5 13 -10 21 -10 8 0 12 5 9 10 -3 6 -13 10 -21 10 -8
0 -12 -4 -9 -10z"/>
<path d="M960 3670 c0 -5 5 -10 11 -10 5 0 7 5 4 10 -3 6 -8 10 -11 10 -2 0
-4 -4 -4 -10z"/>
<path d="M1791 3664 c0 -11 3 -14 6 -6 3 7 2 16 -1 19 -3 4 -6 -2 -5 -13z"/>
<path d="M720 3660 c0 -5 5 -10 11 -10 5 0 7 5 4 10 -3 6 -8 10 -11 10 -2 0
-4 -4 -4 -10z"/>
<path d="M2150 3660 c0 -5 5 -10 10 -10 6 0 10 5 10 10 0 6 -4 10 -10 10 -5 0
-10 -4 -10 -10z"/>
<path d="M2790 3649 c0 -5 5 -7 10 -4 6 3 10 8 10 11 0 2 -4 4 -10 4 -5 0 -10
-5 -10 -11z"/>
<path d="M3501 3643 c-1 -6 -4 -20 -7 -30 -5 -17 -5 -17 6 0 6 10 9 23 6 30
-3 9 -5 9 -5 0z"/>
<path d="M3896 3625 c-3 -8 -1 -15 3 -15 5 0 11 7 15 15 3 8 1 15 -3 15 -5 0
-11 -7 -15 -15z"/>
<path d="M986 3622 c-3 -6 -1 -14 5 -17 15 -10 25 3 12 16 -7 7 -13 7 -17 1z"/>
<path d="M2820 3614 c0 -8 5 -12 10 -9 6 3 10 10 10 16 0 5 -4 9 -10 9 -5 0
-10 -7 -10 -16z"/>
<path d="M3285 3613 c-7 -19 9 -38 24 -29 16 10 14 33 -3 39 -8 3 -17 -1 -21
-10z"/>
<path d="M3850 3614 c0 -9 5 -14 12 -12 18 6 21 28 4 28 -9 0 -16 -7 -16 -16z"/>
<path d="M2380 3590 c0 -6 7 -10 15 -10 8 0 15 2 15 4 0 2 -7 6 -15 10 -8 3
-15 1 -15 -4z"/>
<path d="M1770 3580 c0 -5 5 -10 10 -10 6 0 10 5 10 10 0 6 -4 10 -10 10 -5 0
-10 -4 -10 -10z"/>
<path d="M1810 3566 c0 -15 26 -15 -1187 -16 l-173 0 0 -744 c0 -586 -3 -746
-12 -750 -10 -5 -10 -7 0 -12 18 -8 18 -1084 -1 -1103 -8 -10 -9 -12 0 -7 9 5
12 -49 12 -235 0 -132 1 -243 3 -245 2 -2 91 -4 197 -5 155 -1 191 -4 187 -14
-3 -8 7 -18 26 -24 17 -6 32 -11 33 -11 1 0 1 11 0 25 -3 25 -3 25 75 25 62 0
79 -3 84 -16 5 -13 9 -14 21 -4 12 10 18 10 30 0 11 -9 17 -9 29 3 12 11 46
15 157 15 79 0 138 -3 133 -6 -6 -4 -2 -15 10 -26 16 -16 18 -17 13 -3 -3 9
-2 17 4 17 6 0 7 4 4 10 -4 6 21 9 69 8 46 -2 75 -7 73 -13 -2 -5 -26 -9 -53
-8 -27 1 -41 -1 -31 -3 11 -4 16 -12 13 -21 -3 -8 -6 -17 -6 -20 0 -3 -7 0
-15 7 -20 17 -19 6 1 -14 19 -19 34 -12 34 15 0 10 7 19 15 19 8 0 15 -5 15
-10 0 -6 11 -3 24 5 23 15 25 15 31 -5 3 -11 10 -18 15 -15 10 6 2 36 -14 48
-7 5 -3 6 8 3 11 -4 23 -1 27 6 6 9 11 10 19 2 8 -8 6 -16 -7 -29 -17 -18 -17
-18 12 -12 28 7 29 6 11 -8 -19 -15 -19 -15 2 -15 12 0 22 5 22 11 0 15 26 39
47 44 10 2 28 7 41 11 12 3 22 2 22 -4 0 -5 10 -13 23 -16 20 -6 20 -7 5 -17
-10 -5 -18 -14 -18 -19 0 -17 26 -11 45 10 10 11 24 20 30 20 7 0 16 7 19 16
6 15 8 15 27 -2 17 -16 22 -16 29 -4 8 13 10 12 10 -2 0 -20 -13 -23 -40 -8
-16 9 -22 5 -35 -20 -8 -16 -16 -33 -16 -37 -1 -16 -9 -16 -9 0 0 9 -4 17 -10
17 -5 0 -8 -12 -7 -27 1 -16 -3 -28 -10 -29 -7 -1 -19 -2 -25 -3 -7 -1 0 -10
16 -20 20 -14 35 -17 46 -11 20 11 56 6 53 -7 -1 -6 13 -6 37 1 22 5 35 13 29
16 -5 4 -7 14 -4 23 6 14 8 14 25 0 16 -14 16 -17 1 -32 -9 -10 -21 -16 -27
-14 -6 2 -14 -5 -17 -16 -3 -14 -1 -19 6 -14 85 51 99 63 84 69 -18 7 -24 34
-7 34 5 0 14 -8 19 -17 6 -10 11 -14 11 -10 0 14 30 -20 30 -35 1 -7 8 0 16
16 10 17 14 40 10 58 -4 21 -2 28 7 25 6 -2 11 -13 10 -25 -3 -24 29 -35 60
-21 22 9 22 10 -1 5 -15 -3 -26 2 -32 14 -15 28 -12 50 6 50 13 0 14 -3 4 -14
-8 -11 -9 -20 -1 -33 6 -10 11 -13 11 -7 0 8 9 8 34 0 20 -6 32 -15 29 -22 -3
-7 -11 -10 -19 -7 -8 3 -23 -2 -33 -11 -10 -9 -21 -13 -26 -9 -4 5 -5 0 -2 -9
5 -15 1 -18 -23 -18 -16 0 -32 -5 -35 -10 -4 -6 -12 -7 -18 -3 -20 13 -67 9
-67 -5 0 -8 10 -13 23 -12 12 1 31 2 41 1 20 -1 20 -1 0 -16 -16 -13 -16 -14
-1 -9 17 6 22 -8 18 -44 -1 -8 5 -12 15 -10 21 4 30 67 12 80 -8 6 -5 7 9 3
17 -5 25 0 38 25 13 26 19 29 35 20 15 -8 20 -8 20 1 0 7 3 10 6 6 11 -10 34
20 36 47 3 29 7 31 42 14 22 -9 29 -8 46 7 19 17 21 17 38 2 20 -18 37 -23 28
-8 -6 9 42 6 52 -3 3 -4 -3 -13 -14 -20 -10 -8 -21 -11 -24 -8 -3 4 -18 7 -35
7 -19 0 -29 5 -27 12 3 18 -13 16 -28 -2 -8 -10 -17 -12 -29 -5 -29 15 -45 -4
-38 -44 3 -22 2 -36 -5 -36 -5 0 -8 -6 -5 -14 3 -8 0 -17 -7 -19 -8 -3 -13 1
-12 11 0 9 -6 17 -14 17 -8 0 -14 -8 -14 -17 1 -12 -5 -18 -21 -18 -17 0 -26
-9 -34 -31 -14 -39 -14 -36 5 -43 8 -3 12 -2 9 4 -3 6 5 10 19 10 32 0 45 20
14 21 -23 1 -23 1 2 9 49 16 60 12 56 -17 -2 -16 -1 -22 1 -15 3 7 9 9 15 6 7
-4 8 -2 4 4 -5 8 0 12 13 12 12 0 21 -4 21 -10 0 -5 7 -10 15 -10 8 0 15 7 15
16 0 8 -4 12 -10 9 -5 -3 -10 -2 -10 3 0 6 -8 8 -19 5 -15 -4 -19 2 -23 26 -3
17 1 40 8 50 7 10 10 21 7 25 -3 3 3 6 15 6 12 0 22 -4 22 -10 0 -5 -6 -10
-14 -10 -17 0 -31 -18 -21 -28 3 -3 10 0 15 8 8 12 10 11 10 -7 0 -12 -6 -24
-12 -26 -7 -3 -3 -6 10 -6 19 -1 22 3 17 27 -3 15 -2 21 1 13 5 -11 11 -9 26
10 11 13 17 18 13 12 -3 -7 -1 -13 4 -13 6 0 2 -9 -9 -20 -11 -11 -20 -30 -20
-41 0 -21 9 -22 52 -4 13 5 15 2 11 -14 -3 -11 -9 -18 -14 -15 -5 3 -6 -2 -3
-11 4 -9 16 -14 32 -13 15 2 27 -3 30 -12 3 -8 1 -12 -3 -8 -11 10 -35 -17
-35 -41 0 -11 -4 -22 -9 -25 -5 -3 -8 -17 -8 -31 0 -18 5 -25 19 -25 10 0 17
4 14 9 -3 5 1 11 9 15 8 3 15 12 15 19 0 9 9 13 25 12 26 -3 48 16 27 23 -17
5 -15 22 3 22 8 0 15 4 15 9 0 11 -30 25 -47 22 -7 -1 -13 3 -13 9 0 6 14 9
35 7 35 -4 48 6 20 17 -8 3 -15 0 -15 -6 0 -9 -3 -9 -11 -1 -6 6 -18 9 -27 6
-11 -5 -13 -2 -7 8 6 11 5 12 -6 1 -18 -16 -48 -17 -31 0 7 7 12 19 12 28 0
18 36 43 50 35 6 -4 10 3 10 14 0 12 4 21 9 21 5 0 9 -6 8 -12 -1 -34 4 -47
17 -42 7 3 20 -2 29 -10 8 -8 17 -12 21 -9 3 4 6 -3 6 -15 0 -15 8 -22 30 -27
34 -8 33 -5 20 -40 -5 -14 -6 -24 -1 -21 5 4 12 0 15 -6 3 -7 3 -1 0 14 -6 25
-3 28 20 28 18 0 24 4 20 15 -4 9 -19 15 -39 15 -39 0 -67 26 -44 41 8 5 20 9
27 9 10 0 10 3 -2 15 -8 8 -18 15 -23 15 -5 0 -15 9 -23 19 -7 11 -18 17 -23
14 -5 -3 -2 6 8 20 11 17 22 24 32 20 9 -4 14 -2 10 3 -3 6 3 16 14 22 19 12
20 12 3 -13 -16 -25 -16 -26 4 -32 12 -3 20 -9 17 -13 -3 -5 4 -6 15 -3 11 3
20 11 20 19 0 8 -7 11 -17 8 -15 -5 -16 -4 -3 5 8 5 26 8 40 6 14 -3 20 -3 13
1 -17 8 -4 34 16 33 11 0 12 -2 3 -6 -10 -4 -10 -8 -1 -19 6 -8 8 -14 4 -14
-4 0 -1 -8 6 -17 13 -16 12 -17 -3 -5 -9 8 -25 12 -34 10 -16 -3 -16 -4 0 -21
13 -13 27 -16 47 -12 24 6 29 3 35 -19 4 -19 13 -26 30 -26 17 0 24 -6 24 -19
0 -10 7 -24 15 -31 11 -9 15 -9 15 -1 0 6 10 16 23 21 13 5 16 9 6 9 -8 1 -20
-4 -27 -11 -9 -9 -12 -6 -12 14 0 15 -3 33 -6 42 -3 9 -1 16 6 16 6 0 9 -4 6
-8 -2 -4 -1 -14 5 -22 6 -11 9 -9 9 11 0 20 6 28 24 31 18 4 22 1 19 -13 -4
-13 0 -18 16 -16 12 1 21 4 21 8 0 4 9 11 20 14 11 3 20 11 20 17 0 6 -3 8 -6
5 -4 -3 -15 -2 -25 4 -15 8 -19 6 -19 -8 -1 -17 -1 -17 -11 -1 -5 10 -17 18
-24 18 -8 0 -15 4 -15 10 0 5 -7 7 -15 4 -8 -4 -15 -12 -15 -20 0 -8 -4 -14
-10 -14 -5 0 -10 10 -10 21 0 18 -2 19 -15 9 -9 -7 -18 -10 -22 -6 -3 3 -1 6
7 6 9 0 10 3 1 13 -8 10 -7 14 4 14 8 0 12 -3 11 -6 -2 -3 7 -7 20 -7 17 -1
24 3 24 17 0 10 -4 19 -10 19 -5 0 -7 -7 -3 -16 5 -14 3 -15 -16 -5 -24 13
-20 31 7 32 12 0 11 3 -5 9 -13 5 -23 13 -23 19 0 14 44 21 52 8 6 -9 8 -8 8
2 0 11 3 12 11 4 7 -7 8 -17 1 -29 -7 -13 -6 -28 2 -48 10 -26 13 -27 25 -12
7 9 9 16 3 16 -5 0 -12 9 -15 20 -3 11 -2 18 3 15 4 -2 19 6 32 18 22 21 27
22 36 8 10 -14 11 -14 11 2 1 28 23 16 51 -28 25 -38 25 -38 28 -11 2 14 8 26
13 26 6 0 7 -4 4 -10 -3 -5 -2 -10 4 -10 6 0 9 12 8 28 -2 23 2 27 23 27 18 0
25 -5 24 -17 -1 -11 5 -18 17 -18 11 0 19 -5 19 -10 0 -6 11 -8 25 -4 19 5 25
2 25 -10 0 -9 -3 -15 -7 -15 -22 4 -32 -2 -27 -15 9 -24 44 13 44 46 0 31 -11
35 -32 14 -11 -11 -18 -11 -30 -2 -9 7 -14 17 -10 22 9 12 60 17 76 7 14 -9
56 -12 56 -3 0 3 32 7 72 8 40 2 74 5 77 7 2 3 3 38 2 79 -1 41 2 77 8 80 6 4
6 18 0 39 -12 44 -12 47 10 47 22 0 36 16 22 24 -5 4 -11 1 -13 -6 -8 -24 -25
3 -21 34 2 18 3 40 3 48 -3 51 -1 63 10 74 10 8 12 6 7 -11 -4 -18 1 -23 24
-28 16 -4 38 -4 49 0 17 5 19 10 9 21 -13 16 -36 19 -41 4 -2 -6 -9 -6 -18 0
-13 8 -12 12 5 25 11 9 14 14 8 10 -8 -4 -13 0 -13 10 0 12 5 15 18 11 16 -6
16 -5 0 8 -10 7 -18 21 -18 29 0 11 -7 16 -21 14 -16 -1 -22 4 -24 21 -1 18 6
24 37 34 21 6 43 17 49 24 6 7 18 10 27 7 14 -4 14 -3 3 5 -8 6 -23 9 -33 7
-10 -2 -18 2 -18 8 -1 7 -6 2 -13 -11 -7 -12 -16 -19 -20 -16 -4 4 -7 1 -8 -7
0 -8 -4 -5 -8 6 -10 24 -2 43 10 24 13 -22 20 -4 10 25 -6 14 -17 26 -26 26
-8 0 -15 5 -15 10 0 6 4 10 10 10 5 0 7 7 4 15 -4 10 0 13 14 10 14 -2 22 3
26 18 9 33 7 37 -10 37 -11 0 -15 6 -11 20 3 11 1 18 -4 14 -5 -3 -9 -12 -9
-20 0 -8 -5 -14 -11 -14 -7 0 -8 12 -4 32 9 43 24 60 46 53 9 -3 20 -1 24 5 3
5 15 10 26 10 10 0 19 5 19 11 0 6 -8 8 -19 4 -25 -8 -32 22 -13 53 13 19 12
22 -1 22 -9 0 -19 -5 -22 -10 -3 -6 -15 -10 -26 -10 -10 0 -19 -4 -19 -10 0
-5 3 -10 8 -10 4 0 12 -10 17 -23 10 -19 8 -22 -12 -22 -13 0 -25 5 -27 12 -3
7 1 10 10 6 7 -3 14 0 14 6 0 6 -6 11 -14 11 -10 0 -12 9 -6 40 4 23 9 42 11
43 37 20 44 27 41 41 -2 9 1 16 6 16 6 0 12 6 15 13 4 10 -2 13 -19 9 -22 -4
-24 -8 -19 -33 6 -25 4 -28 -11 -22 -10 4 -13 8 -7 10 6 2 8 13 6 24 -5 16 -8
18 -14 7 -7 -10 -9 -9 -9 5 0 12 6 17 18 15 12 -2 16 3 14 17 -3 16 -1 18 9 8
19 -19 35 -16 35 7 0 17 -5 19 -38 13 -37 -5 -53 8 -25 21 10 5 10 7 0 12 -16
7 -17 74 -2 74 6 0 18 -4 28 -10 13 -6 24 -5 37 5 18 14 18 14 -2 15 -19 0
-50 43 -46 62 1 4 -5 5 -13 2 -8 -4 -15 -1 -15 5 0 6 8 11 17 11 15 0 14 3 -4
19 -11 11 -19 29 -17 42 1 13 3 27 3 32 1 4 8 7 17 7 11 0 14 -6 8 -22 -4 -13
-9 -30 -11 -38 -3 -8 6 3 19 25 29 48 26 69 -11 62 -24 -5 -26 -3 -26 29 0 19
3 34 7 34 4 0 8 -9 8 -20 0 -13 5 -18 15 -14 8 4 15 13 15 21 0 19 -27 46 -40
38 -5 -3 -9 9 -8 29 1 35 18 41 18 7 0 -15 6 -17 28 -12 25 5 25 6 5 9 -23 3
-41 41 -29 61 3 5 1 11 -6 13 -17 6 -21 208 -5 208 7 0 6 4 -3 10 -12 8 -12
10 2 15 10 4 22 4 28 0 5 -3 10 1 10 9 0 19 -5 20 -31 5 -20 -10 -20 -8 -17
74 2 47 6 83 11 80 4 -2 7 1 7 6 0 6 -4 11 -10 11 -15 0 -13 117 3 124 10 5
10 7 0 12 -7 3 -13 19 -13 35 0 16 5 29 13 29 8 0 9 3 1 8 -11 7 -14 153 -14
620 l0 212 -86 0 c-65 0 -84 3 -78 13 6 10 4 10 -7 0 -16 -16 -179 -18 -179
-3 0 7 -6 7 -17 1 -10 -5 -205 -10 -446 -10 -347 -1 -427 1 -421 11 6 10 5 10
-7 1 -10 -8 -83 -12 -247 -13 -201 0 -232 2 -232 15 0 8 -4 15 -10 15 -5 0
-10 -6 -10 -14z m468 -1375 c10 -6 8 -14 -9 -35 -19 -24 -20 -30 -8 -52 38
-72 -4 -143 -90 -152 -76 -7 -67 -29 15 -34 58 -4 70 -8 90 -32 31 -35 31 -77
0 -113 -22 -25 -31 -28 -103 -31 -68 -3 -81 -1 -105 18 -34 26 -37 69 -8 95
17 16 18 20 5 38 -13 18 -13 24 1 45 14 22 14 25 -1 42 -21 23 -29 78 -16 112
14 36 63 61 112 56 36 -3 40 -1 50 30 11 33 24 36 67 13z m-450 -56 c7 -14 11
-14 38 0 43 22 81 19 109 -10 24 -23 25 -30 25 -140 l0 -115 -40 0 -40 0 0
100 c0 110 -7 123 -56 102 -23 -11 -24 -16 -24 -107 l0 -95 -40 0 -40 0 0 140
0 140 30 0 c16 0 33 -7 38 -15z m1756 -1197 c-3 -4 -12 -8 -20 -8 -8 0 -14 4
-14 8 0 4 9 8 19 8 11 0 17 -4 15 -8z m-1559 -498 c3 -5 1 -10 -4 -10 -6 0
-11 5 -11 10 0 6 2 10 4 10 3 0 8 -4 11 -10z m435 -5 c0 -8 -2 -15 -4 -15 -2
0 -6 7 -10 15 -3 8 -1 15 4 15 6 0 10 -7 10 -15z m186 -8 c5 -1 8 -6 6 -11 -1
-4 3 -14 9 -22 6 -8 7 -14 3 -14 -5 0 -15 9 -22 20 -7 11 -22 20 -34 20 -21 0
-21 0 -2 14 12 9 21 11 25 4 3 -5 10 -10 15 -11z m-340 1 c4 -6 10 -5 15 3 4
7 10 11 13 9 2 -3 -5 -16 -17 -30 -12 -15 -18 -18 -14 -8 3 10 2 20 -3 23 -6
4 -10 -1 -10 -9 0 -9 -7 -16 -17 -16 -9 0 -13 3 -10 7 4 3 2 12 -3 18 -8 9 -4
13 15 13 14 0 28 -5 31 -10z m408 3 c3 -5 -3 -11 -14 -14 -20 -5 -26 3 -13 16
9 10 21 9 27 -2z m33 -25 c-20 -19 -27 -21 -27 -10 0 9 9 18 20 21 11 3 20 10
20 16 0 6 3 7 7 4 3 -4 -6 -18 -20 -31z m-641 11 c4 -4 19 -4 33 0 l26 6 -24
-22 c-24 -21 -25 -21 -35 -3 -6 11 -19 18 -28 17 -10 -2 -18 1 -18 6 0 10 35
7 46 -4z m303 -3 c6 4 11 0 11 -8 0 -9 -7 -16 -15 -16 -8 0 -15 2 -15 4 0 2
-3 13 -6 23 -4 14 -4 15 4 4 5 -7 15 -10 21 -7z m139 -8 c-7 -8 -15 -12 -17
-11 -5 6 10 25 20 25 5 0 4 -6 -3 -14z m287 4 c-3 -5 -14 -10 -23 -9 -14 0
-13 2 3 9 27 11 27 11 20 0z m55 0 c0 -5 -4 -10 -10 -10 -5 0 -10 5 -10 10 0
6 5 10 10 10 6 0 10 -4 10 -10z m-420 -17 c0 -11 -3 -14 -8 -7 -4 6 -14 14
-22 17 -10 4 -8 6 8 6 15 1 22 -5 22 -16z m123 2 c-3 -9 -8 -14 -10 -11 -3 3
-2 9 2 15 9 16 15 13 8 -4z m-503 -5 c0 -5 -4 -10 -9 -10 -6 0 -13 5 -16 10
-3 6 1 10 9 10 9 0 16 -4 16 -10z m-15 -20 c3 -5 -1 -10 -9 -10 -9 0 -16 5
-16 10 0 6 4 10 9 10 6 0 13 -4 16 -10z m72 -12 c-3 -8 -6 -5 -6 6 -1 11 2 17
5 13 3 -3 4 -12 1 -19z m-23 -4 c5 -14 4 -15 -9 -4 -17 14 -19 20 -6 20 5 0
12 -7 15 -16z m466 6 c0 -5 -5 -10 -11 -10 -5 0 -7 5 -4 10 3 6 8 10 11 10 2
0 4 -4 4 -10z m70 0 c0 -5 -4 -10 -10 -10 -5 0 -10 5 -10 10 0 6 5 10 10 10 6
0 10 -4 10 -10z m-717 -6 c3 -3 -2 -14 -11 -25 -12 -13 -18 -15 -23 -7 -12 20
18 48 34 32z m940 -39 c-2 -7 -10 -12 -18 -12 -8 0 -13 3 -10 5 3 3 -1 12 -7
21 -10 13 -10 14 2 4 18 -17 38 -17 22 -1 -7 7 -12 16 -12 22 0 5 6 1 14 -9 8
-11 12 -24 9 -30z m-287 10 c-3 -18 -45 -55 -63 -55 -8 0 -12 -4 -9 -9 7 -11
-22 -36 -31 -28 -3 4 0 14 8 24 8 9 9 14 2 10 -12 -7 -11 6 2 36 8 18 35 24
35 6 0 -5 -4 -8 -9 -5 -5 3 -11 0 -14 -7 -3 -8 3 -14 14 -14 10 -1 19 3 19 8
0 5 10 14 23 19 13 5 16 9 7 10 -13 0 -13 1 0 10 19 12 19 13 16 -5z m-176 -6
c0 -8 6 -7 18 2 15 13 16 12 3 -4 -9 -11 -18 -14 -25 -8 -6 5 -20 11 -31 14
-15 4 -13 5 8 6 15 0 27 -4 27 -10z m239 -48 c2 -1 -2 -8 -9 -16 -10 -12 -14
-12 -26 0 -24 24 -19 26 35 16z m-184 -21 c3 -5 1 -10 -4 -10 -6 0 -11 5 -11
10 0 6 2 10 4 10 3 0 8 -4 11 -10z m73 -145 c-3 -3 -13 -2 -22 1 -14 5 -15 9
-4 15 13 8 36 -6 26 -16z"/>
<path d="M2131 2086 c-31 -37 9 -103 47 -80 36 23 23 94 -18 94 -10 0 -23 -6
-29 -14z"/>
<path d="M2110 1846 c-25 -31 -5 -47 57 -44 54 3 58 5 58 28 0 23 -4 25 -51
28 -36 2 -54 -1 -64 -12z"/>
<path d="M3840 3520 c0 -5 7 -10 15 -10 8 0 15 5 15 10 0 6 -7 10 -15 10 -8 0
-15 -4 -15 -10z"/>
<path d="M3880 3480 c0 -5 5 -10 11 -10 5 0 7 5 4 10 -3 6 -8 10 -11 10 -2 0
-4 -4 -4 -10z"/>
<path d="M3885 3431 c-6 -11 9 -23 19 -14 9 9 7 23 -3 23 -6 0 -12 -4 -16 -9z"/>
<path d="M3735 3260 c-8 -12 12 -40 27 -40 6 0 5 7 -2 15 -9 11 -9 15 -1 15 7
0 9 5 6 10 -8 13 -22 13 -30 0z"/>
<path d="M3870 3221 c0 -9 24 -21 42 -21 6 0 6 6 -2 15 -14 16 -40 20 -40 6z"/>
<path d="M3780 3190 c0 -5 5 -10 10 -10 6 0 10 5 10 10 0 6 -4 10 -10 10 -5 0
-10 -4 -10 -10z"/>
<path d="M3815 3170 c-18 -19 -17 -20 3 -20 15 0 22 6 22 20 0 11 -2 20 -3 20
-2 0 -12 -9 -22 -20z"/>
<path d="M3635 2990 c3 -5 8 -10 11 -10 2 0 4 5 4 10 0 6 -5 10 -11 10 -5 0
-7 -4 -4 -10z"/>
<path d="M3705 2980 c3 -5 8 -10 11 -10 2 0 4 5 4 10 0 6 -5 10 -11 10 -5 0
-7 -4 -4 -10z"/>
<path d="M3630 2860 c0 -5 7 -10 16 -10 8 0 12 5 9 10 -3 6 -10 10 -16 10 -5
0 -9 -4 -9 -10z"/>
<path d="M3673 2717 c2 -6 12 -11 21 -11 9 1 16 -2 16 -7 0 -5 5 -9 10 -9 22
0 8 19 -21 29 -23 8 -29 8 -26 -2z"/>
<path d="M3910 2710 c0 -5 5 -10 10 -10 6 0 10 5 10 10 0 6 -4 10 -10 10 -5 0
-10 -4 -10 -10z"/>
<path d="M3866 2664 c-9 -24 -7 -27 9 -10 17 17 19 26 6 26 -5 0 -12 -7 -15
-16z"/>
<path d="M3616 2641 c-4 -5 -2 -12 3 -15 5 -4 12 -2 15 3 4 5 2 12 -3 15 -5 4
-12 2 -15 -3z"/>
<path d="M295 2590 c3 -5 8 -10 11 -10 2 0 4 5 4 10 0 6 -5 10 -11 10 -5 0 -7
-4 -4 -10z"/>
<path d="M3723 2587 c4 -10 7 -23 7 -28 0 -5 5 -9 10 -9 15 0 12 20 -7 38 -16
16 -16 16 -10 -1z"/>
<path d="M3571 2564 c0 -11 3 -14 6 -6 3 7 2 16 -1 19 -3 4 -6 -2 -5 -13z"/>
<path d="M3580 2525 c0 -8 4 -15 10 -15 5 0 7 7 4 15 -4 8 -8 15 -10 15 -2 0
-4 -7 -4 -15z"/>
<path d="M3770 2498 c0 -7 7 -21 14 -31 12 -15 14 -16 20 -2 3 8 3 22 0 30 -7
18 -34 20 -34 3z"/>
<path d="M3610 2485 c0 -8 2 -15 4 -15 2 0 6 7 10 15 3 8 1 15 -4 15 -6 0 -10
-7 -10 -15z"/>
<path d="M3670 2491 c0 -5 5 -13 10 -16 6 -3 10 -2 10 4 0 5 -4 13 -10 16 -5
3 -10 2 -10 -4z"/>
<path d="M3736 2475 c-9 -26 -7 -32 5 -12 6 10 9 21 6 23 -2 3 -7 -2 -11 -11z"/>
<path d="M3650 2451 c0 -6 5 -13 10 -16 6 -3 10 1 10 9 0 9 -4 16 -10 16 -5 0
-10 -4 -10 -9z"/>
<path d="M3680 2430 c0 -5 5 -10 10 -10 6 0 10 5 10 10 0 6 -4 10 -10 10 -5 0
-10 -4 -10 -10z"/>
<path d="M3930 2420 c0 -5 5 -10 10 -10 6 0 10 5 10 10 0 6 -4 10 -10 10 -5 0
-10 -4 -10 -10z"/>
<path d="M3740 2399 c0 -24 23 -21 28 4 2 10 -3 17 -12 17 -10 0 -16 -9 -16
-21z"/>
<path d="M3560 2400 c0 -5 5 -10 11 -10 5 0 7 5 4 10 -3 6 -8 10 -11 10 -2 0
-4 -4 -4 -10z"/>
<path d="M3595 2400 c-8 -12 23 -45 33 -35 4 3 -1 11 -11 16 -9 6 -15 14 -12
20 4 5 4 9 1 9 -3 0 -8 -5 -11 -10z"/>
<path d="M3655 2391 c-3 -6 0 -11 7 -11 10 0 9 -3 -2 -10 -18 -11 -10 -20 12
-11 14 5 15 9 3 24 -8 12 -15 14 -20 8z"/>
<path d="M3945 2360 c-3 -5 -1 -10 4 -10 6 0 11 5 11 10 0 6 -2 10 -4 10 -3 0
-8 -4 -11 -10z"/>
<path d="M3780 2338 c0 -18 18 -34 28 -24 3 4 -2 14 -11 23 -16 16 -17 16 -17
1z"/>
<path d="M3680 2310 c0 -5 5 -10 11 -10 5 0 7 5 4 10 -3 6 -8 10 -11 10 -2 0
-4 -4 -4 -10z"/>
<path d="M180 2300 c0 -5 5 -10 11 -10 5 0 7 5 4 10 -3 6 -8 10 -11 10 -2 0
-4 -4 -4 -10z"/>
<path d="M3615 2280 c-3 -5 -1 -10 4 -10 6 0 11 5 11 10 0 6 -2 10 -4 10 -3 0
-8 -4 -11 -10z"/>
<path d="M3675 2280 c-3 -5 -1 -10 4 -10 6 0 11 5 11 10 0 6 -2 10 -4 10 -3 0
-8 -4 -11 -10z"/>
<path d="M3857 2249 c-6 -22 5 -32 26 -23 18 6 12 30 -8 38 -7 2 -15 -4 -18
-15z"/>
<path d="M25 2250 c3 -5 10 -10 16 -10 5 0 9 5 9 10 0 6 -7 10 -16 10 -8 0
-12 -4 -9 -10z"/>
<path d="M3580 2215 c0 -8 5 -15 10 -15 6 0 10 7 10 15 0 8 -4 15 -10 15 -5 0
-10 -7 -10 -15z"/>
<path d="M3660 2220 c0 -5 7 -10 15 -10 8 0 15 5 15 10 0 6 -7 10 -15 10 -8 0
-15 -4 -15 -10z"/>
<path d="M3878 2202 c-3 -11 0 -19 8 -19 16 0 19 23 5 31 -5 3 -11 -2 -13 -12z"/>
<path d="M3591 2164 c0 -11 3 -14 6 -6 3 7 2 16 -1 19 -3 4 -6 -2 -5 -13z"/>
<path d="M3652 2169 c-13 -5 -22 -15 -20 -21 6 -17 33 -17 33 0 0 7 7 17 15
22 19 12 2 12 -28 -1z"/>
<path d="M3787 2174 c-8 -8 1 -24 14 -24 5 0 9 7 9 15 0 15 -12 20 -23 9z"/>
<path d="M3845 2140 c-3 -5 -1 -10 5 -10 6 0 8 -5 4 -12 -5 -9 -3 -9 9 1 9 7
14 17 11 22 -7 12 -21 11 -29 -1z"/>
<path d="M3690 2124 c0 -8 5 -12 10 -9 6 3 10 10 10 16 0 5 -4 9 -10 9 -5 0
-10 -7 -10 -16z"/>
<path d="M3610 2120 c0 -5 5 -10 10 -10 6 0 10 5 10 10 0 6 -4 10 -10 10 -5 0
-10 -4 -10 -10z"/>
<path d="M3640 2110 c0 -5 4 -10 9 -10 6 0 13 5 16 10 3 6 -1 10 -9 10 -9 0
-16 -4 -16 -10z"/>
<path d="M65 2060 c3 -5 8 -10 11 -10 2 0 4 5 4 10 0 6 -5 10 -11 10 -5 0 -7
-4 -4 -10z"/>
<path d="M3770 2052 c0 -12 19 -26 26 -19 2 2 -2 10 -11 17 -9 8 -15 8 -15 2z"/>
<path d="M3642 2004 c-11 -12 -10 -14 5 -14 16 0 55 18 43 21 -3 0 -12 2 -20
4 -8 1 -21 -4 -28 -11z"/>
<path d="M3764 2000 c0 -14 7 -20 21 -20 15 0 17 2 6 9 -7 5 -10 14 -7 20 4 6
1 11 -6 11 -8 0 -14 -9 -14 -20z"/>
<path d="M3726 2001 c-3 -5 1 -14 9 -21 13 -10 15 -9 15 9 0 21 -14 28 -24 12z"/>
<path d="M3856 1974 c-8 -21 -8 -24 5 -24 5 0 7 5 4 10 -3 6 -1 10 4 10 6 0
11 5 11 10 0 16 -17 12 -24 -6z"/>
<path d="M3624 1961 c0 -11 5 -17 13 -14 7 3 13 0 13 -6 0 -6 -8 -11 -17 -12
-15 0 -15 -2 2 -9 29 -12 32 -12 32 7 0 13 -30 53 -40 53 -1 0 -3 -8 -3 -19z"/>
<path d="M3690 1970 c0 -5 4 -10 9 -10 6 0 13 5 16 10 3 6 -1 10 -9 10 -9 0
-16 -4 -16 -10z"/>
<path d="M3760 1958 c0 -14 15 -16 27 -3 10 11 9 13 -7 12 -11 -1 -20 -5 -20
-9z"/>
<path d="M3895 1960 c3 -5 8 -10 11 -10 2 0 4 5 4 10 0 6 -5 10 -11 10 -5 0
-7 -4 -4 -10z"/>
<path d="M3922 1930 c0 -14 2 -19 5 -12 2 6 2 18 0 25 -3 6 -5 1 -5 -13z"/>
<path d="M3700 1900 c0 -5 9 -14 20 -20 20 -11 26 -4 12 15 -10 14 -32 17 -32
5z"/>
<path d="M3925 1890 c-3 -5 1 -10 9 -10 9 0 16 5 16 10 0 6 -4 10 -9 10 -6 0
-13 -4 -16 -10z"/>
<path d="M3677 1871 c9 -11 21 -18 25 -15 5 3 1 12 -9 20 -26 20 -35 17 -16
-5z"/>
<path d="M3795 1880 c3 -5 11 -10 16 -10 6 0 7 5 4 10 -3 6 -11 10 -16 10 -6
0 -7 -4 -4 -10z"/>
<path d="M95 1860 c-3 -5 -1 -10 4 -10 6 0 11 5 11 10 0 6 -2 10 -4 10 -3 0
-8 -4 -11 -10z"/>
<path d="M3753 1845 c0 -8 4 -12 9 -9 4 3 8 9 8 15 0 5 -4 9 -8 9 -5 0 -9 -7
-9 -15z"/>
<path d="M350 1840 c0 -5 -13 -10 -30 -10 -29 0 -40 -13 -20 -25 6 -3 10 -15
10 -26 0 -14 7 -19 25 -19 14 0 24 3 24 8 -1 4 0 9 1 12 7 16 6 70 -1 70 -5 0
-9 -4 -9 -10z"/>
<path d="M3660 1840 c0 -5 -7 -10 -16 -10 -14 0 -14 -2 1 -17 13 -13 18 -14
25 -3 4 7 13 9 20 5 9 -6 9 -3 1 14 -12 22 -31 29 -31 11z"/>
<path d="M3785 1830 c3 -5 8 -10 11 -10 2 0 4 5 4 10 0 6 -5 10 -11 10 -5 0
-7 -4 -4 -10z"/>
<path d="M3596 1814 c-8 -21 -8 -24 3 -24 5 0 11 9 14 20 6 24 -8 27 -17 4z"/>
<path d="M145 1790 c-3 -5 3 -10 14 -10 12 0 21 5 21 10 0 6 -6 10 -14 10 -8
0 -18 -4 -21 -10z"/>
<path d="M280 1790 c0 -5 5 -10 10 -10 6 0 10 5 10 10 0 6 -4 10 -10 10 -5 0
-10 -4 -10 -10z"/>
<path d="M3695 1791 c-11 -5 -24 -6 -30 -3 -5 3 -4 -2 4 -11 7 -9 18 -14 25
-10 6 4 19 6 30 4 11 -1 17 2 14 10 -6 17 -18 19 -43 10z"/>
<path d="M3616 1774 c-4 -10 -2 -22 4 -28 12 -12 17 -7 22 18 4 24 -17 32 -26
10z"/>
<path d="M380 1770 c0 -5 4 -10 9 -10 6 0 13 5 16 10 3 6 -1 10 -9 10 -9 0
-16 -4 -16 -10z"/>
<path d="M3692 1754 c-11 -12 -10 -14 5 -14 16 -1 16 -2 2 -13 -9 -7 -14 -18
-12 -24 3 -7 0 -13 -6 -13 -6 0 -10 -15 -10 -32 2 -31 2 -31 6 -5 2 15 9 27
14 27 5 0 9 9 9 19 0 11 4 22 9 25 9 6 9 31 0 40 -2 2 -10 -2 -17 -10z"/>
<path d="M266 1753 c-12 -12 -6 -33 9 -33 8 0 15 6 15 14 0 17 -14 28 -24 19z"/>
<path d="M3730 1735 c0 -8 5 -15 10 -15 6 0 10 7 10 15 0 8 -4 15 -10 15 -5 0
-10 -7 -10 -15z"/>
<path d="M3780 1729 c-7 -11 -9 -23 -6 -26 3 -3 8 2 12 11 3 9 10 13 15 10 5
-3 6 2 3 10 -8 21 -11 20 -24 -5z"/>
<path d="M3860 1719 c0 -11 5 -17 10 -14 6 3 10 13 10 21 0 8 -4 14 -10 14 -5
0 -10 -9 -10 -21z"/>
<path d="M3610 1719 c0 -5 5 -9 10 -9 6 0 12 0 15 0 14 0 8 13 -7 16 -10 1
-18 -2 -18 -7z"/>
<path d="M398 1713 c7 -3 16 -2 19 1 4 3 -2 6 -13 5 -11 0 -14 -3 -6 -6z"/>
<path d="M3816 1705 c-19 -19 -22 -39 -3 -29 9 6 9 5 0 -8 -7 -8 -9 -19 -5
-23 4 -5 2 -5 -4 -2 -16 9 -23 -13 -13 -38 4 -11 8 -14 8 -8 1 9 8 10 26 3 25
-10 33 -2 16 16 -13 12 -17 66 -7 82 12 20 0 25 -18 7z"/>
<path d="M3715 1680 c-3 -5 -1 -10 4 -10 6 0 11 5 11 10 0 6 -2 10 -4 10 -3 0
-8 -4 -11 -10z"/>
<path d="M420 1670 c0 -5 5 -10 10 -10 6 0 10 5 10 10 0 6 -4 10 -10 10 -5 0
-10 -4 -10 -10z"/>
<path d="M210 1660 c0 -5 5 -10 10 -10 6 0 10 5 10 10 0 6 -4 10 -10 10 -5 0
-10 -4 -10 -10z"/>
<path d="M3640 1654 c0 -8 5 -12 10 -9 6 3 10 10 10 16 0 5 -4 9 -10 9 -5 0
-10 -7 -10 -16z"/>
<path d="M3579 1646 c6 -7 7 -17 3 -21 -4 -5 -1 -5 6 -1 10 6 11 1 6 -21 -7
-27 -6 -28 13 -10 11 9 26 17 34 17 21 0 -22 40 -50 45 -18 3 -20 1 -12 -9z"/>
<path d="M3736 1631 c-10 -11 -16 -28 -13 -38 4 -14 5 -13 6 5 0 13 6 20 11
17 6 -3 10 1 10 10 0 10 5 13 12 9 7 -4 8 -3 4 4 -9 15 -10 15 -30 -7z"/>
<path d="M3880 1614 c0 -8 5 -12 10 -9 6 3 10 10 10 16 0 5 -4 9 -10 9 -5 0
-10 -7 -10 -16z"/>
<path d="M3671 1604 c0 -11 3 -14 6 -6 3 7 2 16 -1 19 -3 4 -6 -2 -5 -13z"/>
<path d="M36 1591 c-4 -5 -2 -12 3 -15 5 -4 12 -2 15 3 4 5 2 12 -3 15 -5 4
-12 2 -15 -3z"/>
<path d="M3647 1576 c-6 -15 1 -26 15 -26 11 0 10 27 -1 34 -5 3 -11 0 -14 -8z"/>
<path d="M3865 1580 c-3 -6 1 -7 9 -4 18 7 21 14 7 14 -6 0 -13 -4 -16 -10z"/>
<path d="M284 1549 c-3 -6 -2 -15 4 -21 7 -7 14 -3 21 11 10 17 9 21 -3 21 -8
0 -18 -5 -22 -11z"/>
<path d="M3684 1550 c-12 -5 -25 -14 -30 -21 -4 -8 -3 -10 4 -5 7 4 12 2 12
-4 0 -17 33 5 36 24 1 9 2 16 1 15 -1 0 -12 -4 -23 -9z"/>
<path d="M406 1534 c-17 -12 -17 -14 -4 -14 9 0 20 5 23 11 11 17 2 18 -19 3z"/>
<path d="M3955 1540 c-4 -6 -3 -16 3 -22 6 -6 12 -6 17 2 4 6 3 16 -3 22 -6 6
-12 6 -17 -2z"/>
<path d="M3716 1514 c-8 -21 -7 -22 32 -30 25 -5 33 -3 38 11 7 16 -14 40 -25
29 -3 -3 1 -9 8 -14 10 -5 6 -8 -12 -7 -28 2 -35 12 -14 20 7 4 6 6 -4 6 -9 1
-20 -6 -23 -15z"/>
<path d="M220 1500 c0 -5 7 -10 15 -10 8 0 15 5 15 10 0 6 -7 10 -15 10 -8 0
-15 -4 -15 -10z"/>
<path d="M3670 1489 c0 -5 -4 -7 -10 -4 -12 7 -12 -2 -1 -29 7 -18 9 -17 24
12 13 27 13 32 1 32 -8 0 -14 -5 -14 -11z"/>
<path d="M3885 1490 c3 -5 8 -10 11 -10 2 0 4 5 4 10 0 6 -5 10 -11 10 -5 0
-7 -4 -4 -10z"/>
<path d="M3940 1477 c0 -10 8 -17 18 -17 9 0 13 4 7 8 -5 4 -13 11 -17 16 -5
5 -8 2 -8 -7z"/>
<path d="M3710 1471 c0 -12 26 -32 33 -25 3 4 0 13 -8 20 -16 16 -25 18 -25 5z"/>
<path d="M3773 1453 c-15 -5 -17 -23 -4 -23 5 0 11 7 15 15 3 8 4 15 3 14 -1
0 -8 -3 -14 -6z"/>
<path d="M3610 1440 c0 -5 5 -10 11 -10 5 0 7 5 4 10 -3 6 -8 10 -11 10 -2 0
-4 -4 -4 -10z"/>
<path d="M3716 1404 c-10 -26 -7 -34 13 -34 11 0 22 -8 24 -17 4 -16 5 -16 6
0 0 11 -7 21 -18 24 -13 3 -17 11 -14 24 6 23 -2 25 -11 3z"/>
<path d="M275 1390 c-3 -5 -1 -10 4 -10 6 0 11 5 11 10 0 6 -2 10 -4 10 -3 0
-8 -4 -11 -10z"/>
<path d="M360 1389 c0 -5 5 -7 10 -4 6 3 10 8 10 11 0 2 -4 4 -10 4 -5 0 -10
-5 -10 -11z"/>
<path d="M3655 1390 c-4 -6 -3 -10 2 -9 25 4 35 -2 28 -18 -5 -14 -4 -15 6 -6
10 10 9 15 -1 28 -15 17 -26 19 -35 5z"/>
<path d="M3937 1389 c7 -7 15 -10 18 -7 3 3 -2 9 -12 12 -14 6 -15 5 -6 -5z"/>
<path d="M3792 1375 c-11 -13 -10 -19 2 -37 15 -20 16 -20 22 -3 5 11 3 20 -4
23 -6 2 -8 10 -5 18 7 18 2 17 -15 -1z"/>
<path d="M20 1370 c0 -5 5 -10 11 -10 5 0 7 5 4 10 -3 6 -8 10 -11 10 -2 0 -4
-4 -4 -10z"/>
<path d="M3707 1343 c-9 -2 -15 -9 -12 -14 9 -14 22 -11 29 6 3 8 4 14 3 14
-1 -1 -10 -3 -20 -6z"/>
<path d="M270 1320 c0 -5 5 -10 11 -10 5 0 7 5 4 10 -3 6 -8 10 -11 10 -2 0
-4 -4 -4 -10z"/>
<path d="M3666 1311 c-3 -5 1 -11 9 -15 9 -3 15 0 15 9 0 16 -16 20 -24 6z"/>
<path d="M3625 1300 c-6 -10 42 -46 50 -38 6 5 -29 48 -38 48 -3 0 -8 -4 -12
-10z"/>
<path d="M3795 1295 c-16 -7 -33 -11 -37 -8 -5 2 -8 0 -8 -4 0 -5 14 -14 30
-20 26 -10 32 -9 40 8 6 10 7 19 3 19 -4 0 -1 5 7 10 21 14 1 11 -35 -5z"/>
<path d="M310 1275 c0 -8 2 -15 4 -15 2 0 6 7 10 15 3 8 1 15 -4 15 -6 0 -10
-7 -10 -15z"/>
<path d="M3705 1270 c-3 -5 -3 -10 2 -11 4 0 -1 -5 -12 -10 -19 -8 -19 -9 -1
-6 11 1 20 10 22 20 3 19 -2 22 -11 7z"/>
<path d="M3876 1272 c-3 -6 -1 -14 5 -17 14 -9 20 -2 10 14 -6 8 -11 9 -15 3z"/>
<path d="M3621 1244 c0 -11 3 -14 6 -6 3 7 2 16 -1 19 -3 4 -6 -2 -5 -13z"/>
<path d="M3644 1245 c-4 -11 -12 -23 -18 -27 -6 -4 4 -8 22 -8 35 0 39 7 18
36 -14 19 -15 19 -22 -1z"/>
<path d="M3733 1237 c0 -12 1 -17 4 -10 2 7 12 9 21 6 18 -6 17 -5 -8 14 -13
10 -16 8 -17 -10z"/>
<path d="M3780 1205 c0 -8 2 -15 4 -15 2 0 6 7 10 15 3 8 1 15 -4 15 -6 0 -10
-7 -10 -15z"/>
<path d="M3755 1173 c0 -21 5 -37 10 -35 11 3 8 53 -4 65 -4 4 -7 -9 -6 -30z"/>
<path d="M3659 1184 c-9 -11 -15 -12 -26 -3 -7 7 -16 9 -20 5 -4 -3 2 -13 13
-21 15 -12 16 -16 5 -24 -9 -6 -10 -11 -2 -15 6 -4 9 -12 6 -17 -4 -5 1 -9 9
-9 9 0 15 -5 14 -12 -3 -14 34 -19 54 -7 10 6 9 11 -7 23 -11 9 -26 13 -32 11
-7 -2 -13 0 -13 5 0 6 4 10 9 10 5 0 12 7 15 16 5 13 2 15 -14 11 -11 -3 -20
-1 -20 4 0 8 22 13 43 10 13 -2 7 17 -7 22 -8 3 -20 -1 -27 -9z m31 -84 c0 -5
-5 -10 -11 -10 -5 0 -7 5 -4 10 3 6 8 10 11 10 2 0 4 -4 4 -10z"/>
<path d="M3930 1180 c0 -5 5 -10 10 -10 6 0 10 5 10 10 0 6 -4 10 -10 10 -5 0
-10 -4 -10 -10z"/>
<path d="M275 1150 c-3 -5 -2 -10 4 -10 5 0 13 5 16 10 3 6 2 10 -4 10 -5 0
-13 -4 -16 -10z"/>
<path d="M340 1115 c-11 -13 -10 -14 4 -9 9 3 16 10 16 15 0 13 -6 11 -20 -6z"/>
<path d="M3731 1118 c-1 -10 6 -18 14 -18 8 0 15 5 15 11 0 5 -4 8 -9 5 -5 -4
-12 0 -14 6 -3 8 -6 6 -6 -4z"/>
<path d="M232 1049 c2 -6 8 -10 13 -10 5 0 11 4 13 10 2 6 -4 11 -13 11 -9 0
-15 -5 -13 -11z"/>
<path d="M160 1031 c0 -4 -11 -6 -24 -4 -14 3 -25 -1 -29 -10 -9 -23 26 -27
51 -6 24 19 28 29 12 29 -5 0 -10 -4 -10 -9z"/>
<path d="M3621 1021 c-10 -6 -10 -10 -1 -16 13 -8 24 -1 19 14 -3 6 -10 7 -18
2z"/>
<path d="M3651 1008 c-1 -21 15 -32 25 -17 4 7 3 9 -4 5 -6 -3 -13 2 -15 11
-4 16 -5 16 -6 1z"/>
<path d="M3703 977 c2 -6 19 -12 38 -13 19 -1 26 0 17 3 -10 2 -18 8 -18 12 0
4 -9 7 -21 8 -11 1 -19 -3 -16 -10z"/>
<path d="M3627 963 c3 -7 9 -13 14 -13 5 0 9 6 9 13 0 8 -6 14 -14 14 -8 0
-12 -6 -9 -14z"/>
<path d="M3875 970 c3 -5 8 -10 11 -10 2 0 4 5 4 10 0 6 -5 10 -11 10 -5 0 -7
-4 -4 -10z"/>
<path d="M3880 946 c0 -2 9 -6 20 -9 11 -3 20 -1 20 4 0 5 -9 9 -20 9 -11 0
-20 -2 -20 -4z"/>
<path d="M230 900 c0 -5 5 -10 10 -10 6 0 10 5 10 10 0 6 -4 10 -10 10 -5 0
-10 -4 -10 -10z"/>
<path d="M3650 894 c0 -8 5 -12 10 -9 6 4 8 11 5 16 -9 14 -15 11 -15 -7z"/>
<path d="M3704 890 c0 -9 6 -22 12 -28 8 -8 12 -4 12 13 0 13 -6 26 -12 28 -6
3 -12 -3 -12 -13z"/>
<path d="M3758 903 c7 -3 16 -2 19 1 4 3 -2 6 -13 5 -11 0 -14 -3 -6 -6z"/>
<path d="M3855 861 c-7 -12 12 -24 25 -16 11 7 4 25 -10 25 -5 0 -11 -4 -15
-9z"/>
<path d="M3780 840 c0 -5 7 -10 16 -10 8 0 12 5 9 10 -3 6 -10 10 -16 10 -5 0
-9 -4 -9 -10z"/>
<path d="M3600 801 c0 -6 4 -13 10 -16 6 -3 7 1 4 9 -7 18 -14 21 -14 7z"/>
<path d="M3576 782 c-3 -5 1 -9 9 -9 8 0 12 4 9 9 -3 4 -7 8 -9 8 -2 0 -6 -4
-9 -8z"/>
<path d="M3710 770 c-8 -15 -8 -20 1 -18 6 2 12 -7 14 -19 3 -33 15 -41 15
-10 0 14 -5 29 -10 32 -8 5 -7 11 1 21 8 10 8 14 1 14 -6 0 -16 -9 -22 -20z"/>
<path d="M105 730 c-3 -5 -1 -10 4 -10 6 0 11 5 11 10 0 6 -2 10 -4 10 -3 0
-8 -4 -11 -10z"/>
<path d="M3849 722 c-13 -5 -14 -12 -7 -31 7 -20 11 -22 21 -11 9 10 9 14 -1
17 -10 4 -10 8 -1 19 13 15 12 16 -12 6z"/>
<path d="M3883 715 c0 -8 4 -15 9 -15 4 0 8 7 8 15 0 8 -4 15 -8 15 -5 0 -9
-7 -9 -15z"/>
<path d="M303 693 c-15 -5 -17 -43 -3 -43 6 0 10 6 10 14 0 8 5 16 12 18 7 3
8 7 3 10 -6 3 -16 3 -22 1z"/>
<path d="M3718 683 c7 -3 16 -2 19 1 4 3 -2 6 -13 5 -11 0 -14 -3 -6 -6z"/>
<path d="M3626 637 c3 -10 9 -15 12 -12 3 3 0 11 -7 18 -10 9 -11 8 -5 -6z"/>
<path d="M3906 642 c-3 -6 -1 -14 5 -17 15 -10 25 3 12 16 -7 7 -13 7 -17 1z"/>
<path d="M360 615 c-7 -8 -9 -15 -6 -15 4 0 14 7 22 15 9 8 11 15 6 15 -5 0
-15 -7 -22 -15z"/>
<path d="M66 611 c-4 -7 -5 -15 -2 -18 9 -9 19 4 14 18 -4 11 -6 11 -12 0z"/>
<path d="M3567 613 c-2 -5 -1 -21 2 -37 6 -28 7 -28 21 -11 12 15 12 17 1 10
-11 -6 -13 -3 -7 19 6 23 -7 38 -17 19z"/>
<path d="M3830 609 c0 -5 5 -7 10 -4 6 3 10 8 10 11 0 2 -4 4 -10 4 -5 0 -10
-5 -10 -11z"/>
<path d="M3646 603 c-10 -10 -7 -51 4 -58 7 -4 8 3 4 21 -6 23 -4 26 10 21 9
-4 16 -2 16 2 0 11 -26 22 -34 14z"/>
<path d="M3836 556 c3 -8 14 -14 24 -13 23 2 14 27 -11 27 -12 0 -16 -5 -13
-14z"/>
<path d="M400 550 c0 -5 9 -10 21 -10 11 0 17 5 14 10 -3 6 -13 10 -21 10 -8
0 -14 -4 -14 -10z"/>
<path d="M3945 540 c3 -5 8 -10 11 -10 2 0 4 5 4 10 0 6 -5 10 -11 10 -5 0 -7
-4 -4 -10z"/>
<path d="M3820 510 c0 -5 5 -10 11 -10 5 0 7 5 4 10 -3 6 -8 10 -11 10 -2 0
-4 -4 -4 -10z"/>
<path d="M3960 481 c0 -6 5 -13 10 -16 6 -3 10 1 10 9 0 9 -4 16 -10 16 -5 0
-10 -4 -10 -9z"/>
<path d="M3950 439 c0 -5 5 -7 10 -4 6 3 10 8 10 11 0 2 -4 4 -10 4 -5 0 -10
-5 -10 -11z"/>
<path d="M1270 420 c0 -13 5 -18 15 -14 8 4 15 12 15 20 0 8 -7 14 -15 14 -8
0 -15 -9 -15 -20z"/>
<path d="M3523 423 c-3 -8 0 -20 7 -26 10 -9 14 -9 17 1 3 7 11 18 18 26 12
11 10 14 -11 14 -14 0 -28 -7 -31 -15z"/>
<path d="M985 420 c3 -5 8 -10 11 -10 2 0 4 5 4 10 0 6 -5 10 -11 10 -5 0 -7
-4 -4 -10z"/>
<path d="M1086 421 c-3 -5 1 -11 9 -14 9 -4 12 -1 8 9 -6 16 -10 17 -17 5z"/>
<path d="M1370 420 c0 -5 7 -10 16 -10 8 0 12 5 9 10 -3 6 -10 10 -16 10 -5 0
-9 -4 -9 -10z"/>
<path d="M1773 413 c4 -6 0 -13 -8 -17 -8 -3 -15 -12 -15 -21 0 -8 -4 -15 -10
-15 -5 0 -10 -4 -10 -10 0 -5 7 -7 15 -4 8 4 15 12 15 20 0 8 4 14 9 14 14 0
21 29 9 36 -6 4 -8 3 -5 -3z"/>
<path d="M940 399 c0 -5 5 -7 10 -4 6 3 10 8 10 11 0 2 -4 4 -10 4 -5 0 -10
-5 -10 -11z"/>
<path d="M1325 400 c3 -5 10 -10 16 -10 5 0 9 5 9 10 0 6 -7 10 -16 10 -8 0
-12 -4 -9 -10z"/>
<path d="M1595 390 c3 -5 10 -10 16 -10 5 0 9 5 9 10 0 6 -7 10 -16 10 -8 0
-12 -4 -9 -10z"/>
<path d="M3048 392 c-22 -4 -23 -21 -3 -28 8 -4 15 -14 15 -23 0 -14 -2 -14
-10 -1 -5 8 -12 11 -17 7 -8 -9 15 -27 35 -27 9 0 11 7 7 20 -4 11 -2 20 4 20
6 0 11 -5 11 -11 0 -5 4 -8 9 -5 10 7 2 56 -10 56 -5 0 -6 -8 -3 -17 5 -16 4
-16 -8 -3 -7 9 -21 14 -30 12z"/>
<path d="M3234 386 c5 -15 4 -17 -8 -7 -9 8 -16 8 -20 2 -4 -5 2 -15 11 -21
16 -10 15 -10 -4 -5 -15 4 -30 0 -44 -14 l-21 -20 22 6 c16 4 21 3 16 -5 -4
-7 -2 -12 4 -12 6 0 9 -4 6 -9 -3 -4 6 -6 19 -3 15 2 25 0 25 -7 0 -7 5 -9 10
-6 6 4 7 11 4 17 -4 6 -7 25 -6 42 1 17 -4 38 -9 46 -9 12 -10 11 -5 -4z"/>
<path d="M3356 392 c-3 -5 1 -9 9 -9 8 0 15 4 15 9 0 4 -4 8 -9 8 -6 0 -12 -4
-15 -8z"/>
<path d="M765 380 c-3 -5 -1 -10 4 -10 6 0 11 5 11 10 0 6 -2 10 -4 10 -3 0
-8 -4 -11 -10z"/>
<path d="M1130 380 c0 -5 5 -10 11 -10 5 0 7 5 4 10 -3 6 -8 10 -11 10 -2 0
-4 -4 -4 -10z"/>
<path d="M1230 381 c0 -6 5 -13 10 -16 6 -3 10 1 10 9 0 9 -4 16 -10 16 -5 0
-10 -4 -10 -9z"/>
<path d="M1360 380 c0 -5 5 -10 10 -10 6 0 10 5 10 10 0 6 -4 10 -10 10 -5 0
-10 -4 -10 -10z"/>
<path d="M3388 366 c-3 -14 0 -27 6 -29 6 -3 11 8 12 24 1 35 -12 38 -18 5z"/>
<path d="M3437 370 c-3 -11 -1 -20 5 -20 5 0 6 -4 3 -10 -3 -5 -2 -10 2 -10
15 0 33 23 32 40 0 10 -2 11 -6 3 -2 -7 -9 -13 -14 -13 -6 0 -8 4 -4 9 3 5 1
12 -4 15 -5 3 -11 -3 -14 -14z"/>
<path d="M940 366 c0 -9 7 -12 20 -9 11 3 17 9 14 14 -8 14 -34 10 -34 -5z"/>
<path d="M3685 370 c3 -5 8 -10 11 -10 2 0 4 5 4 10 0 6 -5 10 -11 10 -5 0 -7
-4 -4 -10z"/>
<path d="M440 361 c0 -5 5 -13 10 -16 6 -3 10 -2 10 4 0 5 -4 13 -10 16 -5 3
-10 2 -10 -4z"/>
<path d="M585 360 c-3 -5 1 -10 9 -10 9 0 16 5 16 10 0 6 -4 10 -9 10 -6 0
-13 -4 -16 -10z"/>
<path d="M1695 357 c-5 -12 -2 -24 9 -35 13 -13 16 -14 15 -2 0 8 -4 24 -9 35
-7 19 -8 19 -15 2z"/>
<path d="M1817 351 c-3 -12 0 -24 5 -28 6 -3 8 -1 4 5 -3 5 0 12 6 15 10 3 10
8 2 16 -9 9 -13 7 -17 -8z"/>
<path d="M1322 349 c2 -6 8 -10 13 -10 5 0 11 4 13 10 2 6 -4 11 -13 11 -9 0
-15 -5 -13 -11z"/>
<path d="M3124 345 c-9 -21 -2 -26 13 -10 8 9 9 16 3 20 -6 3 -13 -1 -16 -10z"/>
<path d="M3517 340 c3 -11 9 -20 14 -20 11 0 11 3 3 24 -9 23 -23 20 -17 -4z"/>
<path d="M628 343 c-16 -4 -16 -6 -3 -20 12 -12 19 -12 30 -3 8 7 12 16 9 21
-5 9 -8 10 -36 2z"/>
<path d="M1636 338 c3 -4 9 -8 15 -8 5 0 9 4 9 8 0 5 -7 9 -15 9 -8 0 -12 -4
-9 -9z"/>
<path d="M1287 326 c-3 -8 0 -17 8 -20 14 -5 28 17 18 28 -10 10 -21 7 -26 -8z"/>
<path d="M1483 333 c-15 -5 -18 -43 -4 -43 5 0 11 11 13 25 3 14 5 25 4 24 0
0 -7 -3 -13 -6z"/>
<path d="M3681 324 c0 -11 3 -14 6 -6 3 7 2 16 -1 19 -3 4 -6 -2 -5 -13z"/>
<path d="M140 320 c0 -5 5 -10 11 -10 5 0 7 5 4 10 -3 6 -8 10 -11 10 -2 0 -4
-4 -4 -10z"/>
<path d="M1060 315 c0 -9 6 -12 15 -9 8 4 15 10 15 15 0 5 -7 9 -15 9 -8 0
-15 -7 -15 -15z"/>
<path d="M1168 323 c-27 -6 -22 -20 7 -20 14 0 25 3 25 8 0 12 -12 16 -32 12z"/>
<path d="M1384 323 c5 -9 1 -13 -12 -13 -24 0 -35 -35 -17 -50 9 -8 14 -6 19
6 5 14 9 14 23 3 15 -13 15 -12 5 8 -9 15 -9 22 -1 25 7 2 4 10 -7 18 -11 9
-15 10 -10 3z"/>
<path d="M3321 314 c0 -11 3 -14 6 -6 3 7 2 16 -1 19 -3 4 -6 -2 -5 -13z"/>
<path d="M3370 320 c0 -5 5 -10 11 -10 5 0 7 5 4 10 -3 6 -8 10 -11 10 -2 0
-4 -4 -4 -10z"/>
<path d="M1535 312 c-9 -9 -5 -32 6 -32 5 0 7 5 3 11 -5 8 -1 8 13 0 19 -10
33 -6 33 10 0 8 -47 18 -55 11z"/>
<path d="M1640 310 c-9 -6 -10 -10 -3 -10 6 0 15 5 18 10 8 12 4 12 -15 0z"/>
<path d="M2666 311 c-6 -8 5 -20 32 -35 8 -5 12 0 12 14 0 12 -4 18 -10 15 -5
-3 -10 -1 -10 4 0 13 -17 14 -24 2z"/>
<path d="M1680 301 c0 -5 -8 -11 -17 -13 -16 -3 -16 -4 -2 -10 9 -4 20 1 27
13 8 12 8 19 2 19 -5 0 -10 -4 -10 -9z"/>
<path d="M3720 296 c0 -9 5 -16 10 -16 6 0 10 4 10 9 0 6 -4 13 -10 16 -5 3
-10 -1 -10 -9z"/>
<path d="M1735 278 l-20 -21 23 12 c12 6 22 16 22 21 0 13 -2 12 -25 -12z"/>
<path d="M1790 290 c0 -5 7 -10 16 -10 8 0 12 5 9 10 -3 6 -10 10 -16 10 -5 0
-9 -4 -9 -10z"/>
<path d="M2757 284 c7 -3 9 -12 6 -20 -3 -7 -9 -11 -14 -8 -5 3 -9 1 -9 -5 0
-18 20 -23 26 -7 3 9 13 16 22 16 11 0 4 -10 -18 -29 -34 -28 -34 -28 -13 -40
14 -7 24 -8 28 -1 3 5 11 10 17 10 7 0 7 -4 -1 -13 -11 -15 -5 -27 13 -27 7 0
13 11 14 25 1 16 -3 25 -13 25 -19 0 -19 7 -1 25 16 16 27 10 19 -11 -3 -9 2
-14 17 -14 20 0 21 2 9 17 -23 29 -39 45 -39 38 0 -3 -10 1 -22 9 -12 9 -29
16 -38 15 -9 0 -10 -2 -3 -5z"/>
<path d="M3095 280 c-3 -6 1 -7 9 -4 18 7 21 14 7 14 -6 0 -13 -4 -16 -10z"/>
<path d="M257 266 c-23 -17 -22 -36 2 -36 21 0 33 21 23 38 -5 7 -12 6 -25 -2z"/>
<path d="M777 273 c-12 -12 -7 -22 8 -17 8 4 15 10 15 15 0 11 -14 12 -23 2z"/>
<path d="M1856 263 c-6 -14 -5 -15 5 -6 7 7 10 15 7 18 -3 3 -9 -2 -12 -12z"/>
<path d="M3185 270 c-3 -6 1 -7 9 -4 18 7 21 14 7 14 -6 0 -13 -4 -16 -10z"/>
<path d="M3790 270 c-9 -6 -10 -10 -3 -10 6 0 15 5 18 10 8 12 4 12 -15 0z"/>
<path d="M707 249 c4 -13 9 -17 16 -10 5 5 17 7 26 4 9 -4 13 -3 9 1 -3 4 -12
8 -20 10 -7 1 -18 5 -25 9 -7 5 -9 0 -6 -14z"/>
<path d="M1176 261 c-3 -5 1 -11 9 -15 8 -3 15 -1 15 4 0 13 -18 22 -24 11z"/>
<path d="M2250 260 c0 -5 5 -10 11 -10 5 0 7 5 4 10 -3 6 -8 10 -11 10 -2 0
-4 -4 -4 -10z"/>
<path d="M3360 255 c0 -8 4 -15 9 -15 5 0 14 7 21 15 10 13 9 15 -9 15 -12 0
-21 -6 -21 -15z"/>
<path d="M1040 249 c0 -5 5 -7 10 -4 6 3 10 8 10 11 0 2 -4 4 -10 4 -5 0 -10
-5 -10 -11z"/>
<path d="M1260 244 c0 -17 22 -14 28 4 2 7 -3 12 -12 12 -9 0 -16 -7 -16 -16z"/>
<path d="M1500 245 c8 -10 9 -15 2 -15 -6 0 -9 -7 -6 -15 4 -8 10 -12 15 -9
15 9 10 41 -7 48 -14 5 -15 4 -4 -9z"/>
<path d="M1580 246 c0 -19 27 -28 34 -11 2 7 -2 16 -10 19 -22 8 -24 8 -24 -8z"/>
<path d="M1745 250 c-3 -5 -2 -10 4 -10 5 0 13 5 16 10 3 6 2 10 -4 10 -5 0
-13 -4 -16 -10z"/>
<path d="M1905 250 c-3 -5 -12 -7 -20 -3 -9 3 -15 -1 -15 -11 0 -22 13 -20 35
4 10 11 15 20 12 20 -3 0 -8 -4 -12 -10z"/>
<path d="M1965 250 c-3 -6 1 -7 9 -4 18 7 21 14 7 14 -6 0 -13 -4 -16 -10z"/>
<path d="M3081 246 c-15 -18 5 -34 22 -17 6 6 7 11 2 11 -6 0 -3 5 5 10 13 8
13 10 -1 10 -9 0 -22 -6 -28 -14z"/>
<path d="M3165 249 c5 -7 0 -18 -10 -26 -18 -12 -17 -13 7 -11 15 1 25 5 22 9
-2 4 0 9 6 11 6 2 1 9 -11 16 -15 10 -19 10 -14 1z"/>
<path d="M1300 234 c0 -8 5 -12 10 -9 6 3 10 10 10 16 0 5 -4 9 -10 9 -5 0
-10 -7 -10 -16z"/>
<path d="M1696 235 c-3 -9 0 -15 9 -15 8 0 15 7 15 15 0 8 -4 15 -9 15 -5 0
-11 -7 -15 -15z"/>
<path d="M2036 241 c-4 -6 -2 -11 3 -11 6 0 11 -5 11 -11 0 -5 -4 -7 -10 -4
-5 3 -10 1 -10 -4 0 -11 13 -15 37 -12 7 1 9 -7 6 -21 -4 -19 -3 -20 7 -8 9
11 13 12 17 3 3 -9 10 -10 22 -3 10 5 22 6 26 2 4 -4 1 3 -6 16 -14 23 -29 29
-29 12 0 -5 -4 -10 -10 -10 -5 0 -10 9 -10 20 0 21 -20 29 -20 8 -1 -7 -7 -2
-14 11 -8 15 -16 20 -20 12z"/>
<path d="M3125 240 c-3 -5 -2 -10 4 -10 5 0 13 5 16 10 3 6 2 10 -4 10 -5 0
-13 -4 -16 -10z"/>
<path d="M3733 243 c-15 -5 -17 -23 -4 -23 5 0 11 7 15 15 3 8 4 15 3 14 -1 0
-8 -3 -14 -6z"/>
<path d="M1627 217 c-11 -17 -12 -24 -3 -24 7 0 17 11 23 24 14 30 0 30 -20 0z"/>
<path d="M1917 233 c-11 -10 -8 -43 3 -43 5 0 7 7 4 15 -4 8 -1 15 5 15 6 0
11 5 11 10 0 11 -13 13 -23 3z"/>
<path d="M2535 230 c-7 -11 18 -24 35 -18 6 2 1 9 -9 15 -13 8 -22 9 -26 3z"/>
<path d="M3400 225 c0 -8 4 -15 10 -15 5 0 7 7 4 15 -4 8 -8 15 -10 15 -2 0
-4 -7 -4 -15z"/>
<path d="M1210 221 c0 -6 4 -12 10 -16 5 -3 7 -12 3 -20 -3 -9 1 -15 11 -15
19 0 21 31 4 48 -14 14 -28 16 -28 3z"/>
<path d="M1730 211 c0 -11 4 -22 9 -25 4 -3 6 6 3 19 -5 30 -12 33 -12 6z"/>
<path d="M1767 223 c-10 -9 -9 -23 1 -23 5 0 9 7 9 15 0 17 -1 18 -10 8z"/>
<path d="M1987 219 c-9 -6 -15 -14 -13 -18 3 -4 -6 -14 -19 -21 -30 -16 -31
-26 -6 -39 24 -13 53 17 56 59 2 16 2 30 1 30 0 0 -9 -5 -19 -11z"/>
<path d="M3220 219 c0 -5 -4 -7 -10 -4 -14 9 -12 -1 3 -13 10 -8 13 -6 14 9 1
10 0 19 -3 19 -2 0 -4 -5 -4 -11z"/>
<path d="M595 210 c-3 -5 -1 -10 4 -10 6 0 11 5 11 10 0 6 -2 10 -4 10 -3 0
-8 -4 -11 -10z"/>
<path d="M1822 200 c0 -14 2 -19 5 -12 2 6 2 18 0 25 -3 6 -5 1 -5 -13z"/>
<path d="M2590 209 c0 -10 27 -19 34 -12 11 12 6 19 -14 19 -11 0 -20 -3 -20
-7z"/>
<path d="M2705 211 c-6 -11 9 -23 19 -14 9 9 7 23 -3 23 -6 0 -12 -4 -16 -9z"/>
<path d="M3607 214 c-8 -8 1 -24 14 -24 5 0 9 7 9 15 0 15 -12 20 -23 9z"/>
<path d="M75 200 c-3 -5 -1 -10 4 -10 6 0 11 5 11 10 0 6 -2 10 -4 10 -3 0 -8
-4 -11 -10z"/>
<path d="M1036 195 c4 -8 10 -12 15 -9 14 8 10 24 -6 24 -9 0 -12 -6 -9 -15z"/>
<path d="M1530 195 c-7 -9 -11 -17 -9 -20 3 -2 10 5 17 15 14 24 10 26 -8 5z"/>
<path d="M1891 194 c0 -11 3 -14 6 -6 3 7 2 16 -1 19 -3 4 -6 -2 -5 -13z"/>
<path d="M3660 190 c0 -13 7 -20 20 -20 23 0 26 10 8 28 -18 18 -28 15 -28 -8z"/>
<path d="M660 185 c0 -8 5 -15 10 -15 6 0 10 7 10 15 0 8 -4 15 -10 15 -5 0
-10 -7 -10 -15z"/>
<path d="M1690 185 c-7 -9 -8 -15 -2 -15 5 0 12 7 16 15 3 8 4 15 2 15 -2 0
-9 -7 -16 -15z"/>
<path d="M1850 185 c0 -9 5 -15 11 -13 6 2 11 8 11 13 0 5 -5 11 -11 13 -6 2
-11 -4 -11 -13z"/>
<path d="M2645 191 c-3 -5 -2 -12 3 -15 5 -3 9 1 9 9 0 17 -3 19 -12 6z"/>
<path d="M3229 166 c-12 -27 -13 -33 -2 -29 7 3 13 0 13 -6 0 -6 5 -11 10 -11
6 0 9 3 9 8 -1 4 0 9 1 12 9 25 6 38 -8 33 -13 -3 -13 -1 2 11 15 12 16 16 5
16 -8 0 -22 -15 -30 -34z"/>
<path d="M326 181 c-4 -7 -5 -15 -2 -18 9 -9 19 4 14 18 -4 11 -6 11 -12 0z"/>
<path d="M771 176 c-8 -9 -8 -16 -2 -20 6 -4 15 3 21 14 12 23 -2 27 -19 6z"/>
<path d="M1130 179 c0 -5 5 -7 10 -4 6 3 10 8 10 11 0 2 -4 4 -10 4 -5 0 -10
-5 -10 -11z"/>
<path d="M1170 180 c0 -5 5 -10 10 -10 6 0 10 5 10 10 0 6 -4 10 -10 10 -5 0
-10 -4 -10 -10z"/>
<path d="M1387 184 c-8 -8 1 -24 14 -24 5 0 9 7 9 15 0 15 -12 20 -23 9z"/>
<path d="M2014 168 c-9 -31 9 -39 28 -13 17 22 16 23 -2 28 -13 3 -21 -1 -26
-15z"/>
<path d="M3146 180 c-15 -5 -16 -9 -7 -14 7 -5 18 -3 24 3 14 14 6 20 -17 11z"/>
<path d="M1345 170 c-3 -5 -1 -10 4 -10 6 0 11 5 11 10 0 6 -2 10 -4 10 -3 0
-8 -4 -11 -10z"/>
<path d="M1488 173 c6 -2 9 -10 6 -15 -4 -7 -2 -8 5 -4 13 9 5 26 -12 25 -9 0
-8 -2 1 -6z"/>
<path d="M1610 170 c0 -5 5 -10 10 -10 6 0 10 5 10 10 0 6 -4 10 -10 10 -5 0
-10 -4 -10 -10z"/>
<path d="M3013 173 c-10 -3 -10 -10 -2 -25 8 -15 7 -22 -5 -31 -12 -10 -13
-15 -3 -28 20 -26 47 -31 47 -9 0 11 -4 20 -10 20 -5 0 -10 9 -10 20 0 11 5
20 10 20 6 0 10 5 10 11 0 8 -6 7 -17 -2 -15 -13 -16 -12 -11 9 4 12 5 22 5
21 -1 0 -8 -3 -14 -6z"/>
<path d="M195 160 c-3 -5 1 -10 9 -10 9 0 16 5 16 10 0 6 -4 10 -9 10 -6 0
-13 -4 -16 -10z"/>
<path d="M2183 160 c-13 -5 -23 -12 -23 -16 0 -3 7 -4 15 0 8 3 15 1 15 -5 0
-5 8 -9 18 -7 11 2 16 -3 14 -14 -2 -12 2 -16 12 -12 10 4 20 -3 27 -20 13
-27 24 -33 33 -17 4 5 0 12 -6 14 -10 4 -9 8 2 16 8 6 11 11 6 11 -5 0 -3 6 3
13 11 14 6 27 -10 27 -5 0 -6 -7 -3 -15 4 -8 1 -15 -6 -15 -22 0 -80 32 -74
41 6 11 6 10 -23 -1z"/>
<path d="M2920 160 c0 -6 7 -10 15 -10 8 0 15 2 15 4 0 2 -7 6 -15 10 -8 3
-15 1 -15 -4z"/>
<path d="M1440 150 c0 -5 5 -10 10 -10 6 0 10 5 10 10 0 6 -4 10 -10 10 -5 0
-10 -4 -10 -10z"/>
<path d="M2415 140 c7 -22 6 -23 -8 -12 -18 16 -49 9 -69 -15 -11 -15 -11 -16
5 -10 14 5 20 2 24 -13 7 -25 31 -27 29 -3 0 12 7 19 22 21 26 4 28 17 6 40
-15 15 -16 14 -9 -8z"/>
<path d="M2457 153 c-4 -3 -7 -11 -7 -17 0 -6 5 -5 12 2 6 6 9 14 7 17 -3 3
-9 2 -12 -2z"/>
<path d="M1881 137 c-10 -13 -18 -14 -33 -6 -24 13 -32 7 -23 -20 4 -12 16
-22 28 -23 30 -2 39 -4 59 -12 20 -9 38 0 37 17 0 9 -2 9 -6 0 -10 -25 -31
-12 -40 23 -7 33 -10 35 -22 21z"/>
<path d="M2087 143 c-4 -3 -7 -11 -7 -17 0 -6 5 -5 12 2 6 6 9 14 7 17 -3 3
-9 2 -12 -2z"/>
<path d="M3357 144 c-4 -7 -1 -17 7 -23 10 -9 17 -7 27 6 13 16 12 17 -3 5
-14 -11 -17 -10 -20 5 -2 12 -6 14 -11 7z"/>
<path d="M900 130 c0 -5 5 -10 11 -10 5 0 7 5 4 10 -3 6 -8 10 -11 10 -2 0 -4
-4 -4 -10z"/>
<path d="M1786 125 c-3 -9 0 -15 9 -15 8 0 15 7 15 15 0 8 -4 15 -9 15 -5 0
-11 -7 -15 -15z"/>
<path d="M2475 130 c-3 -5 -1 -10 4 -10 6 0 11 5 11 10 0 6 -2 10 -4 10 -3 0
-8 -4 -11 -10z"/>
<path d="M2780 140 c-7 -24 -7 -39 0 -35 5 3 11 1 15 -5 3 -5 -9 -19 -27 -30
-32 -19 -32 -21 -11 -26 13 -4 20 -10 17 -15 -6 -11 -1 -11 20 -3 21 8 20 22
0 26 -13 2 -12 8 7 33 13 16 18 26 11 21 -8 -5 -15 1 -21 16 -6 13 -10 21 -11
18z"/>
<path d="M2810 130 c0 -5 5 -10 10 -10 6 0 10 5 10 10 0 6 -4 10 -10 10 -5 0
-10 -4 -10 -10z"/>
<path d="M2832 106 c-12 -42 -5 -76 14 -76 16 0 19 26 4 35 -8 5 -7 11 0 20 7
8 8 20 4 26 -5 8 -3 9 6 4 8 -5 11 -3 8 5 -9 27 -27 20 -36 -14z"/>
<path d="M2880 131 c0 -4 9 -16 20 -26 11 -10 20 -14 20 -9 0 5 -9 17 -20 27
-11 9 -20 13 -20 8z"/>
<path d="M3310 130 c0 -5 5 -10 10 -10 6 0 10 5 10 10 0 6 -4 10 -10 10 -5 0
-10 -4 -10 -10z"/>
<path d="M550 120 c0 -5 5 -10 10 -10 6 0 10 5 10 10 0 6 -4 10 -10 10 -5 0
-10 -4 -10 -10z"/>
<path d="M2127 123 c-16 -3 -26 -9 -24 -16 3 -7 11 -10 18 -8 8 2 26 4 42 5
15 1 27 7 27 13 0 13 -10 14 -63 6z"/>
<path d="M2651 115 c-26 -9 -30 -13 -16 -18 25 -10 29 -9 43 13 7 11 11 19 10
19 -2 -1 -18 -7 -37 -14z"/>
<path d="M3132 115 c-7 -8 -9 -15 -4 -15 5 0 15 7 22 15 16 19 -1 19 -18 0z"/>
<path d="M3715 120 c3 -5 8 -10 11 -10 2 0 4 5 4 10 0 6 -5 10 -11 10 -5 0 -7
-4 -4 -10z"/>
<path d="M3820 115 c-8 -10 -7 -17 5 -29 26 -26 52 -15 39 17 -8 22 -31 28
-44 12z"/>
<path d="M750 104 c0 -14 3 -14 15 -4 8 7 15 14 15 16 0 2 -7 4 -15 4 -8 0
-15 -7 -15 -16z"/>
<path d="M1497 113 c-4 -3 -7 -11 -7 -17 0 -6 5 -5 12 2 6 6 9 14 7 17 -3 3
-9 2 -12 -2z"/>
<path d="M1985 106 c-25 -26 -27 -40 -4 -21 13 11 25 21 27 21 2 1 0 4 -5 7
-4 3 -13 0 -18 -7z"/>
<path d="M3183 105 c-9 -10 -8 -14 7 -18 10 -3 21 1 24 8 7 18 -16 25 -31 10z"/>
<path d="M1250 90 c0 -11 4 -20 9 -20 6 0 9 9 8 20 -1 11 -5 20 -9 20 -4 0 -8
-9 -8 -20z"/>
<path d="M2036 95 c4 -8 8 -15 10 -15 2 0 4 7 4 15 0 8 -4 15 -10 15 -5 0 -7
-7 -4 -15z"/>
<path d="M3420 100 c-9 -6 -10 -10 -3 -10 6 0 15 5 18 10 8 12 4 12 -15 0z"/>
<path d="M116 85 c4 -9 13 -15 21 -13 23 5 20 23 -4 26 -18 3 -21 0 -17 -13z"/>
<path d="M2117 84 c-3 -3 6 -16 21 -29 l26 -22 17 21 c10 11 14 25 9 30 -12
12 -32 -3 -26 -20 4 -12 2 -12 -15 -4 -11 6 -17 15 -14 21 7 10 -8 13 -18 3z"/>
<path d="M2236 82 c-2 -4 -1 -14 5 -22 7 -12 9 -10 9 8 0 23 -5 28 -14 14z"/>
<path d="M2740 80 c-9 -6 -10 -10 -3 -10 6 0 15 5 18 10 8 12 4 12 -15 0z"/>
<path d="M2923 74 c-14 -15 -3 -27 14 -16 7 4 9 13 5 19 -5 8 -11 7 -19 -3z"/>
<path d="M2410 69 c0 -5 5 -7 10 -4 6 3 10 8 10 11 0 2 -4 4 -10 4 -5 0 -10
-5 -10 -11z"/>
<path d="M3140 70 c0 -12 41 -50 54 -50 5 0 -3 14 -19 30 -31 33 -35 35 -35
20z"/>
<path d="M1652 58 c-17 -17 -15 -38 3 -38 9 0 15 9 15 25 0 29 -1 30 -18 13z"/>
<path d="M2315 60 c-3 -5 -1 -10 4 -10 6 0 11 5 11 10 0 6 -2 10 -4 10 -3 0
-8 -4 -11 -10z"/>
<path d="M2660 60 c-12 -8 -12 -10 3 -16 21 -8 35 2 21 16 -5 5 -15 6 -24 0z"/>
<path d="M243 53 c-18 -7 -16 -23 2 -23 8 0 15 7 15 15 0 8 -1 15 -2 14 -2 0
-9 -3 -15 -6z"/>
<path d="M1570 40 c-10 -18 -8 -20 20 -20 28 0 30 2 20 20 -6 11 -15 20 -20
20 -5 0 -14 -9 -20 -20z"/>
<path d="M1865 50 c-3 -5 -15 -10 -26 -10 -11 0 -17 -4 -14 -10 6 -9 55 -15
55 -6 0 2 3 11 6 20 7 17 -11 22 -21 6z"/>
<path d="M2111 44 c0 -11 3 -14 6 -6 3 7 2 16 -1 19 -3 4 -6 -2 -5 -13z"/>
<path d="M2372 40 c15 -24 24 -25 31 -6 4 10 1 13 -9 9 -7 -3 -14 0 -14 6 0 6
-5 11 -10 11 -6 0 -5 -8 2 -20z"/>
<path d="M2998 53 c-10 -2 -18 -12 -18 -20 0 -14 3 -14 20 2 17 15 26 28 18
24 -2 -1 -11 -3 -20 -6z"/>
<path d="M110 40 c0 -5 7 -10 16 -10 8 0 12 5 9 10 -3 6 -10 10 -16 10 -5 0
-9 -4 -9 -10z"/>
<path d="M2545 40 c-4 -6 3 -10 14 -10 25 0 27 6 6 13 -8 4 -17 2 -20 -3z"/>
<path d="M3425 40 c3 -5 8 -10 11 -10 2 0 4 5 4 10 0 6 -5 10 -11 10 -5 0 -7
-4 -4 -10z"/>
<path d="M1300 36 c0 -9 30 -14 35 -6 4 6 -3 10 -14 10 -12 0 -21 -2 -21 -4z"/>
<path d="M1890 30 c0 -5 5 -10 10 -10 6 0 10 5 10 10 0 6 -4 10 -10 10 -5 0
-10 -4 -10 -10z"/>
<path d="M1960 36 c0 -2 7 -7 16 -10 8 -3 12 -2 9 4 -6 10 -25 14 -25 6z"/>
<path d="M2278 33 c7 -3 16 -2 19 1 4 3 -2 6 -13 5 -11 0 -14 -3 -6 -6z"/>
</g>
</svg>
